<?xml version="1.0" encoding="UTF-8"?>
<svg width="300" height="330" viewBox="0 0 300 330" fill="none" xmlns="http://www.w3.org/2000/svg">
  <!-- Hogwarts Shield -->
  <path d="M150 10L270 75V200C270 250 220 290 150 320C80 290 30 250 30 200V75L150 10Z" fill="#0E1A40" stroke="#D3A625" stroke-width="3"/>
  
  <!-- Letter H with magical details -->
  <path d="M108 70H128V140H172V70H192V260H172V160H128V260H108V70Z" fill="#D3A625"/>
  
  <!-- Stars around the shield -->
  <path d="M50 50L55 65L42 55H58L45 65L50 50Z" fill="#FFFAE1"/>
  <path d="M250 50L255 65L242 55H258L245 65L250 50Z" fill="#FFFAE1"/>
  <path d="M50 230L55 245L42 235H58L45 245L50 230Z" fill="#FFFAE1"/>
  <path d="M250 230L255 245L242 235H258L245 245L250 230Z" fill="#FFFAE1"/>
  
  <!-- House animals (simplified) -->
  <!-- Gryffindor Lion (top left) -->
  <path d="M90 110C85 105 80 102 90 95C100 88 105 95 110 100C115 105 120 105 120 110C120 115 110 120 105 115C100 110 95 115 90 110Z" fill="#740001"/>
  
  <!-- Slytherin Snake (top right) -->
  <path d="M210 110C215 105 200 90 190 100C180 110 190 120 200 115C210 110 215 95 210 110Z" fill="#1A472A"/>
  
  <!-- Hufflepuff Badger (bottom left) -->
  <path d="M90 190C85 185 80 182 90 175C100 168 105 175 110 180C115 185 120 185 120 190C120 195 110 200 105 195C100 190 95 195 90 190Z" fill="#ECB939"/>
  
  <!-- Ravenclaw Eagle (bottom right) -->
  <path d="M210 190C215 185 200 170 190 180C180 190 190 200 200 195C210 190 215 175 210 190Z" fill="#0A8DDA"/>

  <!-- Banner ribbon -->
  <path d="M80 270H220V290C220 290 190 300 150 300C110 300 80 290 80 290V270Z" fill="#740001" stroke="#D3A625" stroke-width="2"/>
  
  <!-- Motto text (Draco dormiens nunquam titillandus) -->
  <text x="150" y="285" font-family="serif" font-size="14" fill="#F0C75E" text-anchor="middle">DRACO DORMIENS NUNQUAM TITILLANDUS</text>
</svg> 